# Blender 3.6.4
# www.blender.org
o Plane
v -3.892786 1.599898 3.892786
v 3.892786 1.599898 3.892786
v -3.892786 1.599898 -3.892786
v 3.892786 1.599898 -3.892786
v -7.108912 1.599898 7.108912
v 7.108912 1.599898 7.108912
v -7.108912 1.599898 -7.108912
v 7.108912 1.599898 -7.108912
v -3.892786 0.109311 -3.892786
v -3.892786 0.109311 3.892786
v 3.892786 0.109311 3.892786
v 3.892786 0.109311 -3.892786
v -7.108912 0.109311 -7.108912
v -7.108912 0.109311 7.108912
v 7.108912 0.109311 7.108912
v 7.108912 0.109311 -7.108912
vn -0.0000 -1.0000 -0.0000
vn -0.0000 1.0000 -0.0000
vn -0.0000 -0.0000 1.0000
vn -0.0000 -0.0000 -1.0000
vn 1.0000 -0.0000 -0.0000
vn -1.0000 -0.0000 -0.0000
vt 0.613102 0.113102
vt 0.613102 0.386898
vt 0.500000 0.500000
vt 0.500000 0.000000
vt 0.886898 0.386898
vt 0.886898 0.113102
vt 1.000000 -0.000000
vt 1.000000 0.500000
vt 0.386898 0.386898
vt 0.500000 0.500000
vt 0.000000 0.500000
vt 0.113102 0.386898
vt 0.113102 0.113102
vt 0.000000 0.000000
vt 0.500000 0.000000
vt 0.386898 0.113102
vt 0.419358 0.500000
vt 0.419358 0.773796
vt 0.366938 0.773796
vt 0.366938 0.500000
vt 0.262099 0.500000
vt 0.262099 0.773796
vt 0.209679 0.773796
vt 0.209679 0.500000
vt 0.157259 0.500000
vt 0.157259 1.000000
vt 0.104840 1.000000
vt 0.104839 0.500000
vt 0.104839 0.500000
vt 0.104839 1.000000
vt 0.052420 1.000000
vt 0.052420 0.500000
vt 0.314518 0.500000
vt 0.314518 0.773796
vt 0.262099 0.500000
vt 0.366938 0.500000
vt 0.366938 0.773796
vt 0.314518 0.773796
vt 0.314518 0.500000
vt 0.157259 1.000000
vt 0.157259 0.500000
vt 0.209679 0.500000
vt 0.209679 1.000000
vt 0.052420 0.500000
vt 0.052420 1.000000
vt 0.000000 1.000000
vt -0.000000 0.500000
s 0
f 10/1/1 11/2/1 15/3/1 14/4/1
f 12/5/1 9/6/1 13/7/1 16/8/1
f 4/9/2 8/10/2 7/11/2 3/12/2
f 1/13/2 5/14/2 6/15/2 2/16/2
f 2/16/2 6/15/2 8/10/2 4/9/2
f 3/12/2 7/11/2 5/14/2 1/13/2
f 11/2/1 12/5/1 16/8/1 15/3/1
f 9/6/1 10/1/1 14/4/1 13/7/1
f 4/17/3 3/18/3 9/19/3 12/20/3
f 1/21/4 2/22/4 11/23/4 10/24/4
f 8/25/5 6/26/5 15/27/5 16/28/5
f 5/29/6 7/30/6 13/31/6 14/32/6
f 2/33/6 4/34/6 12/22/6 11/35/6
f 3/36/5 1/37/5 10/38/5 9/39/5
f 7/40/4 8/41/4 16/42/4 13/43/4
f 6/44/3 5/45/3 14/46/3 15/47/3
