# Blender 3.6.4
# www.blender.org
o Cube.001
v -6.586073 0.373306 -8.429856
v -6.586073 1.606542 -8.429856
v -6.586073 0.373306 -11.051873
v -6.586073 1.606542 -11.051873
v -8.701894 0.373306 -11.051873
v -8.701894 0.373306 -8.429856
v -8.701894 1.606542 -8.429856
v -8.701894 1.606542 -11.051873
v 5.368785 8.351156 -8.429856
v 5.368785 8.351156 -11.051873
v 2.054472 8.351156 -8.429856
v 2.054472 8.351156 -11.051873
v 5.368785 6.939992 -8.429856
v 5.368785 6.939992 -11.051873
v 2.054472 6.939992 -8.429856
v 2.054472 6.939992 -11.051873
v 2.054472 8.351156 -13.551873
v 5.368785 8.351156 -13.551873
v 2.054472 6.939992 -13.551873
v 5.368785 6.939992 -13.551873
vn -0.0000 -0.0000 -1.0000
vn 1.0000 -0.0000 -0.0000
vn -1.0000 -0.0000 -0.0000
vn -0.0000 -0.0000 1.0000
vn -0.5312 0.8472 -0.0000
vn -0.0000 -1.0000 -0.0000
vn 0.5253 -0.8509 -0.0000
vn -0.0000 1.0000 -0.0000
vt 0.914467 0.461984
vt 0.989215 0.461984
vt 0.989215 0.590227
vt 0.914467 0.590227
vt 0.855616 0.924628
vt 0.780867 0.924628
vt 0.780867 0.765703
vt 0.855616 0.765703
vt 0.930364 0.924628
vt 0.930364 0.765703
vt 0.989215 0.718471
vt 0.914467 0.718471
vt 0.914467 0.590227
vt 0.989215 0.590227
vt 0.318883 0.913361
vt 0.159958 0.913361
vt 0.159958 0.197478
vt 0.318883 0.197478
vt 0.555946 0.920570
vt 0.555946 0.761645
vt 0.683013 0.761645
vt 0.683013 0.920570
vt 0.159958 0.183457
vt 0.081846 0.218305
vt 0.000000 0.034848
vt 0.078112 -0.000000
vt 0.780867 0.199043
vt 0.780867 0.761645
vt 0.621942 0.761645
vt 0.621942 0.199043
vt 0.857497 0.765704
vt 0.780867 -0.000000
vt 0.857497 0.037996
vt 0.914467 0.650809
vt -0.000000 0.828294
vt 0.052250 0.945411
vt 0.780867 0.000000
vt 0.621942 0.000000
vt 0.683013 0.920570
vt 0.683013 0.761645
vt 0.768546 0.761645
vt 0.768546 0.920570
vt 0.914467 0.461984
vt 0.914467 0.310454
vt 1.000000 0.310454
vt 1.000000 0.461984
vt 0.914467 -0.000000
vt 1.000000 -0.000000
vt 1.000000 0.158925
vt 0.914467 0.158925
vt 0.159958 0.000000
vt 0.318883 0.000000
vt 0.470413 0.761645
vt 0.555946 0.761645
vt 0.555946 0.962532
vt 0.470413 0.962532
vt 0.470413 0.199043
vt 0.470413 0.000000
vt 1.000000 0.310454
vt 0.914467 0.310454
vt 0.470413 0.000000
vt 0.470413 0.197478
s 0
f 4/1/1 3/2/1 5/3/1 8/4/1
f 3/5/2 4/6/2 2/7/2 1/8/2
f 6/9/3 7/5/3 8/8/3 5/10/3
f 1/11/4 2/12/4 7/13/4 6/14/4
f 8/15/5 7/16/5 11/17/5 12/18/5
f 3/19/6 1/20/6 6/21/6 5/22/6
f 11/23/4 15/24/4 13/25/4 9/26/4
f 15/27/7 2/28/7 4/29/7 16/30/7
f 8/31/1 12/32/1 16/33/1 4/34/1
f 2/35/4 15/24/4 11/23/4 7/36/4
f 13/37/6 15/27/6 16/30/6 14/38/6
f 12/39/2 11/40/2 15/41/2 16/42/2
f 12/43/3 17/44/3 19/45/3 16/46/3
f 9/47/2 13/48/2 14/49/2 10/50/2
f 9/51/8 10/52/8 12/18/8 11/17/8
f 18/53/1 20/54/1 19/55/1 17/56/1
f 16/30/6 19/57/6 20/58/6 14/38/6
f 14/49/2 20/59/2 18/60/2 10/50/2
f 10/52/8 18/61/8 17/62/8 12/18/8
