# Blender 3.6.4
# www.blender.org
o Cube
v -0.135000 3.257137 0.135000
v -0.135000 3.527137 0.135000
v -0.135000 3.257137 -0.135000
v -0.135000 3.527137 -0.135000
v 0.135000 3.257137 0.135000
v 0.135000 3.527137 0.135000
v 0.135000 3.257137 -0.135000
v 0.135000 3.527137 -0.135000
v -0.135000 4.229161 -0.135000
v -0.135000 4.229161 0.135000
v 0.135000 4.229161 -0.135000
v 0.135000 4.229161 0.135000
v -0.135000 5.873821 0.135000
v -0.135000 5.873821 -0.135000
v 0.135000 5.873821 -0.135000
v 0.135000 5.873821 0.135000
vn 1.0000 -0.0000 -0.0000
vn -0.0000 -0.0000 1.0000
vn -1.0000 -0.0000 -0.0000
vn -0.0000 -0.0000 -1.0000
vn -0.0000 1.0000 -0.0000
vn -0.0000 -1.0000 -0.0000
s 0
f 1//1 3//1 4//1 2//1
f 3//2 7//2 8//2 4//2
f 7//3 5//3 6//3 8//3
f 5//4 1//4 2//4 6//4
f 3//5 1//5 5//5 7//5
f 8//6 6//6 2//6 4//6
f 12//1 11//1 15//1 16//1
f 9//3 10//3 13//3 14//3
f 9//6 11//6 12//6 10//6
f 15//5 14//5 13//5 16//5
f 10//2 12//2 16//2 13//2
f 11//4 9//4 14//4 15//4
